<?xml version="1.0" encoding="UTF-8" standalone="no"?>
<!-- Created with Inkscape (http://www.inkscape.org/) -->

<svg
   width="47.994064mm"
   height="41.545284mm"
   viewBox="0 0 47.994064 41.545284"
   version="1.1"
   id="svg11240"
   inkscape:version="1.2.2 (732a01da63, 2022-12-09)"
   sodipodi:docname="Kerni.svg"
   xmlns:inkscape="http://www.inkscape.org/namespaces/inkscape"
   xmlns:sodipodi="http://sodipodi.sourceforge.net/DTD/sodipodi-0.dtd"
   xmlns="http://www.w3.org/2000/svg"
   xmlns:svg="http://www.w3.org/2000/svg">
  <sodipodi:namedview
     id="namedview11242"
     pagecolor="#ffffff"
     bordercolor="#000000"
     borderopacity="0.25"
     inkscape:showpageshadow="2"
     inkscape:pageopacity="0.0"
     inkscape:pagecheckerboard="0"
     inkscape:deskcolor="#d1d1d1"
     inkscape:document-units="mm"
     showgrid="false"
     inkscape:zoom="4.1020923"
     inkscape:cx="81.78753"
     inkscape:cy="80.56864"
     inkscape:window-width="1920"
     inkscape:window-height="1001"
     inkscape:window-x="-9"
     inkscape:window-y="-9"
     inkscape:window-maximized="1"
     inkscape:current-layer="layer1" />
  <defs
     id="defs11237" />
  <g
     inkscape:label="Ebene 1"
     inkscape:groupmode="layer"
     id="layer1"
     transform="translate(-3.7326953,-3.3084324)">
    <path
       id="path8398"
       style="fill:#000000;fill-opacity:1;stroke:none;stroke-width:0.264583;stroke-dasharray:none;stroke-opacity:0.948387"
       d="M 27.695057 12.248972 L 22.083513 16.28025 L 18.535926 19.279551 L 15.182126 22.053025 L 12.731112 24.439442 C 12.731112 24.439442 5.2796271 32.822964 4.1362882 34.122572 C 4.0883883 34.170072 4.0305068 34.233857 3.9879769 34.273467 C 3.821837 34.428217 3.5761552 34.570312 4.0474048 34.614532 C 4.5489543 34.661632 6.1356494 34.517897 6.1356494 34.517897 L 11.666578 33.244073 C 11.666578 33.244073 11.570175 33.663091 10.828386 34.308091 C 10.086637 34.95308 5.2406606 39.653708 3.9264819 40.532517 C 3.5314223 40.798577 3.8624031 40.919057 3.8624031 40.919057 L 7.2807991 41.241518 L 10.828386 44.8537 L 14.020956 39.693808 C 14.020956 39.693808 17.600839 37.920169 18.987578 36.98493 C 20.374317 36.049691 21.98684 35.017762 22.309339 34.598512 C 22.631839 34.179273 22.82507 33.856439 22.82507 33.856439 L 22.050957 33.566534 C 22.050957 33.566534 21.632015 33.98538 21.212765 34.34013 C 20.793526 34.69487 16.6332 37.14616 16.6332 37.14616 L 15.569182 37.113604 L 19.052174 31.244195 L 23.807439 29.63189 C 23.807439 29.63189 25.72161 28.893699 26.824309 28.180299 C 27.691198 27.61945 30.855588 24.568633 30.855588 24.568633 L 29.01694 24.568633 C 29.01694 24.568633 27.082013 26.664743 25.759775 27.438742 C 24.437526 28.212742 17.987639 30.502638 17.987639 30.502638 L 6.1842252 33.404787 L 11.699134 27.180877 C 11.699134 27.180877 14.278907 24.213723 15.375395 23.246234 C 16.471884 22.278734 21.502851 17.989708 22.66384 17.118959 C 23.824838 16.24822 27.791692 13.378102 27.791692 13.378102 L 35.338001 14.79662 C 35.338001 14.79662 35.241264 15.441751 34.789714 16.28025 C 34.338215 17.11874 33.33864 18.699224 33.33864 18.699224 L 34.725119 18.666668 L 37.112053 14.216294 L 27.695057 12.248972 z M 17.566476 31.790932 L 10.65682 43.261032 L 8.3536019 40.638454 L 5.8679655 40.205405 L 14.259701 32.406398 L 17.566476 31.790932 z " />
    <path
       style="fill:#000000;fill-opacity:1;stroke:none;stroke-width:0.264583;stroke-dasharray:none;stroke-opacity:0.948387"
       d="m 22.534935,35.049775 0.70949,-1.06424 c 0,0 0.74175,0.35475 1.54799,0.4515 0.80625,0.0968 1.51574,0.0968 1.51574,0.0968 l 0.1935,0.90299 c 0,0 -1.2981,0.0592 -2.45098,-0.129 -0.79012,-0.12899 -1.51574,-0.258 -1.51574,-0.258 z"
       id="path8400"
       sodipodi:nodetypes="ccsccscc" />
    <path
       style="fill:#000000;fill-opacity:1;stroke:none;stroke-width:0.264583;stroke-dasharray:none;stroke-opacity:0.948387"
       d="m 26.308155,42.176985 c 0,0 1.2255,-0.80625 2.12849,-1.16099 0.90299,-0.35475 1.32224,-0.258 2.160736,0 0.83849,0.258 1.87049,0.61274 2.22523,0.90299 0.35475,0.29025 0.903,0.74175 1.12875,1.06425 0.22574,0.32249 0.38699,0.48374 0.38699,0.48374 0,0 0.129,-0.48374 -0.0645,-0.99974 -0.19349,-0.516 -0.58049,-0.903 -0.87074,-1.0965 -0.29025,-0.1935 -0.9092,-0.66651 -0.9092,-0.66651 l 0.29645,-0.0752 c 0,0 0.645,-0.129 1.06425,0 0.41924,0.12899 1.06203,0.55657 1.32224,0.87074 0.25442,0.30719 -0.0782,-0.61504 -0.3225,-0.80624 -0.50411,-0.39454 -1.22549,-0.7095 -1.70924,-0.74175 -0.48375,-0.0323 -2.04961,0.0654 -2.41873,-0.1935 -0.622166,-0.43638 -1.709236,-4.51497 -1.709236,-4.51497 0,0 5.529686,-3.24974 6.916426,-4.28174 1.38674,-1.03199 4.75799,-3.92584 5.66099,-5.11908 0.90299,-1.19324 2.09624,-3.33785 2.54773,-4.4666 0.4515,-1.12874 0.99975,-3.28948 0.9675,-4.41822 -0.0323,-1.12874 -0.0645,-1.99948 -0.0645,-1.99948 l -1.12874,0.0645 c 0,0 0.0967,1.58024 0.0322,2.70898 -0.0645,1.12875 -0.80625,3.54749 -1.548,4.67623 -0.74174,1.12874 -1.85436,3.22498 -3.64422,4.80522 -1.06209,0.9377 -4.70847,3.51523 -5.61147,4.06347 -0.90299,0.54825 -5.740456,3.38623 -5.740456,3.38623 0,0 1.22549,2.90248 1.45124,3.61198 0.22575,0.7095 0.16125,1.77374 0.16125,1.77374 0,0 -0.774,-0.0968 -1.45124,0.29025 -0.67725,0.38699 -1.19325,0.70949 -1.38675,1.09649 -0.1935,0.387 0.129,0.74175 0.129,0.74175 z"
       id="path8402"
       sodipodi:nodetypes="csssscssccssssscssssccsssscscsscc" />
    <path
       style="fill:#000000;fill-opacity:1;stroke:none;stroke-width:0.264583;stroke-dasharray:none;stroke-opacity:0.948387"
       d="m 18.569675,23.832085 c 0,0 1.32263,-1.16301 1.73311,-1.80152 0.41047,-0.63852 0.29645,-1.1174 0.29645,-1.1174 l 7.38851,-0.13682 6.157096,-0.98058 -2.28041,3.64865 c 0,0 -5.427356,0.47888 -7.320096,0.47888 -1.89274,0 -5.97466,-0.0912 -5.97466,-0.0912 z"
       id="path8406" />
    <path
       style="fill:#000000;fill-opacity:1;stroke:none;stroke-width:0.264583;stroke-dasharray:none;stroke-opacity:0.948387"
       d="m 28.603455,11.472285 1.52787,0.0228 c 0,0 1.892736,-3.1241496 2.736486,-4.1731396 0.84375,-1.04898 1.66469,-1.82432 2.69088,-2.21199 1.02618,-0.38767 2.12077,-0.775339 3.3522,-0.843752 1.23141,-0.06841 2.23479,-0.228039 3.14695,0.342062 0.91217,0.5701 2.71369,1.84713 2.71369,1.84713 l 0.5701,-0.66132 c 0,0 -2.75929,-1.641892 -3.375,-1.938344 -0.61571,-0.296453 -2.02956,-0.547299 -2.66808,-0.547299 -0.63851,0 -1.64189,0.04561 -2.69088,0.478885 -1.04898,0.433279 -2.32601,0.912168 -2.96452,1.436658 -0.63852,0.52449 -5.039696,6.2483096 -5.039696,6.2483096 z"
       id="path8408" />
    <path
       id="path8410"
       style="fill:#000000;fill-opacity:1;stroke:none;stroke-width:0.264583;stroke-dasharray:none;stroke-opacity:0.948387"
       d="M 46.162664 5.9992242 C 46.162664 5.9992242 45.93436 6.3872187 45.364263 6.7748875 C 44.794163 7.1625563 43.699765 7.2994033 43.699765 7.2994033 C 43.699765 7.2994033 43.654002 6.7518415 43.403142 6.5010024 C 43.152302 6.250163 42.536528 6.1589044 42.536528 6.1589044 L 40.894768 6.1361668 L 39.595106 7.2534112 C 39.595106 7.2534112 41.099827 8.348238 41.487497 8.4166477 C 41.875164 8.4850477 43.334929 8.4166477 43.334929 8.4166477 C 43.334929 8.4166477 43.67709 10.058587 43.65429 11.061964 C 43.63149 12.065341 43.471872 13.889699 43.471872 13.889699 C 43.471872 13.889699 46.048547 13.958099 46.550237 13.889699 C 47.051924 13.821299 48.191891 13.592973 48.761988 13.273716 C 49.332088 12.954466 50.016692 12.270676 50.016692 12.270676 L 51.726665 12.201946 C 51.726665 12.201946 51.361801 11.403801 50.837314 10.605661 C 50.312804 9.807525 49.788511 9.0551443 49.355234 8.5990655 C 48.921954 8.142977 46.162664 5.9992242 46.162664 5.9992242 z M 42.294683 6.7149428 C 42.366183 6.713701 42.432943 6.7244911 42.491053 6.7516331 C 42.788893 6.8907529 43.150236 7.1846063 43.107036 7.3676162 C 43.063956 7.550046 42.984918 7.6321142 42.764938 7.7097141 C 42.489548 7.806914 41.966571 7.8007894 41.601702 7.7551894 C 41.236842 7.7095794 41.236866 7.568958 41.236866 7.1851984 C 41.236866 7.1851984 41.857736 6.722532 42.294683 6.7149428 z M 46.139926 7.4818211 C 46.687213 7.4818211 48.03247 8.5762831 48.511357 9.1235813 C 48.990237 9.6708698 50.107642 11.244382 50.107642 11.244382 C 50.107642 11.244382 48.169162 11.152959 46.960548 10.788079 C 45.751941 10.423222 44.726059 10.03567 44.726059 10.03567 C 44.631859 8.7815952 44.168472 7.7207302 46.139926 7.4818211 z M 44.794272 11.19839 C 44.794272 11.19839 45.774826 11.654753 46.572974 11.814373 C 47.371114 11.974003 48.374415 12.087741 48.374415 12.087741 C 48.374415 12.087741 48.397619 12.270221 48.237989 12.429839 C 48.078359 12.589469 47.553518 12.680975 46.93781 12.863405 C 46.322102 13.045835 44.726059 13.045823 44.726059 13.045823 L 44.794272 11.19839 z " />
  </g>
</svg>
